inDegrees=yes
name=ik_S48_A05_T02
DataType=double
version=3
OpenSimVersion=4.3-2021-08-27-4bc7ad9
endheader
time	pelvis_tilt	pelvis_list	pelvis_rotation	pelvis_tx	pelvis_ty	pelvis_tz	hip_flexion_r	hip_adduction_r	hip_rotation_r	knee_angle_r	knee_angle_r_beta	ankle_angle_r	subtalar_angle_r	mtp_angle_r	hip_flexion_l	hip_adduction_l	hip_rotation_l	knee_angle_l	knee_angle_l_beta	ankle_angle_l	subtalar_angle_l	mtp_angle_l	lumbar_extension	lumbar_bending	lumbar_rotation	arm_flex_r	arm_add_r	arm_rot_r	elbow_flex_r	pro_sup_r	wrist_flex_r	wrist_dev_r	arm_flex_l	arm_add_l	arm_rot_l	elbow_flex_l	pro_sup_l	wrist_flex_l	wrist_dev_l
32.69999999999951	-3.865655010614382	-2.831941678209638	33.60624847845749	0	0.9399999999999999	0	28.47689991916896	-9.359828498951472	-8.444780680389711	31.51798014463631	0.5500925271021022	0	0	0	28.47689991916896	-9.359828498951472	-8.444780680389711	31.51798014463631	0.5500925271021022	0	0	0	-2.314378926394731	-3.286996987933823	-0.45997178058768	71.28549775830591	12.56979528647563	5.761887516448803	22.68043062232653	112.9814680785375	0	0	36.13179935574276	-9.305735660900453	-3.469386717049385	22.04972180442769	125.2319299035023	0	0
32.71999999999952	-3.831508627223665	-2.794593107338234	33.22369261249361	0	0.9399999999999999	0	28.57741767527984	-9.368885483560431	-8.461086192606766	31.65095517846233	0.5524133792653171	0	0	0	28.57741767527984	-9.368885483560431	-8.461086192606766	31.65095517846233	0.5524133792653171	0	0	0	-2.27121036808256	-3.271001488253076	-0.3216026921652733	70.80802220381672	10.60888849171106	5.26416226734374	23.10545298812061	113.1047701107118	0	0	36.0443449260228	-9.365186208039423	-3.733827413606623	22.09239002358829	125.2747675538206	0	0
32.73999999999952	-3.828253231255214	-2.774557404367593	33.12228181630942	0	0.9399999999999999	0	28.59423235101999	-9.370622783016728	-8.464084323557115	31.66865510106874	0.552722301192147	0	0	0	28.59423235101999	-9.370622783016728	-8.464084323557115	31.66865510106874	0.552722301192147	0	0	0	-2.261235655828474	-3.250726591079782	-0.3679337998927495	70.75974364265234	10.7396157367377	5.34647929763269	23.16585663378308	113.1246540086184	0	0	36.03048780010474	-9.363814824585871	-3.866343675451499	22.05796444058592	125.3159103586789	0	0
32.75999999999952	-3.813005825332292	-2.73840822456694	32.96688811218626	0	0.9399999999999999	0	28.59980256600865	-9.3713351833954	-8.465199596465803	31.67443837381754	0.5528232383431546	4.546987755253858e-36	0	0	28.59980256600865	-9.3713351833954	-8.465199596465803	31.67443837381754	0.5528232383431546	4.546987755253858e-36	0	0	-2.231858903698517	-3.223978897422395	-0.4331853151103478	70.73988178655985	10.73840115320195	5.38806589387822	22.67287775085842	113.1902903380819	0	0	35.94842430729206	-9.39744460568679	-3.997718106815578	22.04652582279011	125.3011730564792	0	0
32.77999999999953	-3.814363659035921	-2.742701054764269	32.93722111419871	0	0.9399999999999999	0	28.60712011588727	-9.372270597387789	-8.466664497683771	31.68203331992496	0.5529557951592405	0	0	0	28.60712011588727	-9.372270597387789	-8.466664497683771	31.68203331992496	0.5529557951592405	0	0	0	-2.234776219187034	-3.22807006698808	-0.4011076229623913	70.82006585235254	10.53999597277813	5.284568997111308	22.20383964060577	113.1560475386282	0	0	35.97368044732008	-9.369171319028418	-3.929917930958443	22.0560626841311	125.31773719345	0	0
32.79999999999953	-3.8029664182478	-2.664738194569958	32.74475670935537	0	0.9399999999999999	0	28.61098306413107	-9.372762724344922	-8.467436237021131	31.68605245966314	0.5530259423807695	0	0	0	28.61098306413107	-9.372762724344922	-8.467436237021131	31.68605245966314	0.5530259423807695	0	0	0	-2.186566727749819	-3.163042439330232	-0.4872350031961881	70.74315645515637	10.57848718188505	5.423302678443883	21.80853788769687	113.0040811130624	0	0	35.84329051151411	-9.399600953318526	-4.130045223792819	22.01761872324028	125.2339786976091	0	0
32.81999999999953	-3.812753894366975	-2.634985527234515	32.62559929141049	0	0.9399999999999999	0	28.6163849667818	-9.373451890993795	-8.468516523384711	31.69166291364102	0.5531238632752151	0	0	0	28.6163849667818	-9.373451890993795	-8.468516523384711	31.69166291364102	0.5531238632752151	0	0	0	-2.180720530498977	-3.129789110081798	-0.5243078669906196	70.79416682246878	10.51536713701346	5.466024129359609	21.34922222097569	112.7297263504552	0	0	35.79143449360631	-9.422713746849922	-4.178350414232973	22.04942775071159	125.2245363461149	0	0
32.83999999999953	-3.819296738253269	-2.595982903996934	32.49901247855147	0	0.9399999999999999	0	28.62277623299561	-9.374266877959686	-8.469794442186238	31.69829942108725	0.553239692180985	0	0	0	28.62277623299561	-9.374266877959686	-8.469794442186238	31.69829942108725	0.553239692180985	0	0	0	-2.1661493127003	-3.092320965015378	-0.5311358317820964	70.87663652757284	10.25798459258196	5.446270816867693	20.64346045129983	112.3271949578511	0	0	35.72993823548672	-9.42857653045087	-4.241344689818666	22.05296338055615	125.2182187314293	0	0
32.85999999999954	-3.801873831025007	-2.561053780863438	31.4761986026066	0	0.9399999999999999	0	28.82363965103541	-9.392175898431436	-8.502206004915802	31.96377357793158	0.5578730902968744	0	0	0	28.82363965103541	-9.392175898431436	-8.502206004915802	31.96377357793158	0.5578730902968744	0	0	0	-2.132317764803817	-3.116375326235564	0.420794496208463	68.69509565767244	3.4217772493636	2.283065152443193	24.42025562207828	113.4257330206445	0	0	35.70274874976069	-9.429633907810679	-4.329117345283048	22.04266061647096	125.2860682670936	0	0
32.87999999999954	-3.79291524299024	-2.532050294992163	31.30466412907928	0	0.9399999999999999	0	28.82871180653339	-9.392811724327789	-8.503211320426745	31.96903781064682	0.5579649684903465	0	0	0	28.82871180653339	-9.392811724327789	-8.503211320426745	31.96903781064682	0.5579649684903465	0	0	0	-2.1078965499883	-3.099277543935304	0.4798217568768639	68.43508093991791	2.6025457007112	1.782665736956108	24.52362341349348	113.5571478741434	0	0	35.63542004135056	-9.4652083649756	-4.372896690768131	22.03924840376704	125.3054358914455	0	0
32.89999999999954	-3.797377206811806	-2.496944327073755	31.1333438749222	0	0.9399999999999999	0	28.83306598997759	-9.393356749132586	-8.504073619936579	31.97356037836386	0.5580439021876533	0	0	0	28.83306598997759	-9.393356749132586	-8.504073619936579	31.97356037836386	0.5580439021876533	0	0	0	-2.091929109532952	-3.06972712036974	0.5351512466894472	68.24317152815256	1.834946835175945	1.249379299425388	24.52465828315765	113.6939395211758	0	0	35.56383262876953	-9.492208013527323	-4.449083344979071	22.05541208907171	125.3104662151499	0	0
32.91999999999955	-3.7998291978879	-2.462694696857887	30.9610404077509	0	0.9399999999999999	0	28.837118338352	-9.393863170256852	-8.504875397961195	31.97777336944358	0.5581174327533516	0	0	0	28.837118338352	-9.393863170256852	-8.504875397961195	31.97777336944358	0.5581174327533516	0	0	0	-2.074848417033248	-3.041647741449918	0.5867447758802375	68.12045115555664	1.111201833975271	0.7583074147726223	24.43643832924212	113.8111122144503	0	0	35.51541741468913	-9.534045916528429	-4.628518967868057	22.0530861257915	125.4096028893174	0	0
32.93999999999955	-3.809761484362167	-2.425815371213782	30.80214471823617	0	0.9399999999999999	0	28.84116375399339	-9.394368626991673	-8.505675776992328	31.98197807790251	0.5581908187600464	0	0	0	28.84116375399339	-9.394368626991673	-8.505675776992328	31.98197807790251	0.5581908187600464	0	0	0	-2.063021832312927	-3.007439970712308	0.6391301471191307	67.99295642778964	0.4004858009167492	0.295960664258253	24.35156215941224	114.0147225403231	0	0	35.47287648612275	-9.533861248025707	-4.759692462690935	22.05396096744	125.4325842633703	0	0
32.95999999999955	-3.812056189870888	-2.382180392260882	30.63784401678472	0	0.9399999999999999	0	28.84552854466873	-9.3949136152088	-8.506539051335391	31.98651536388966	0.5582700093396267	0	0	0	28.84552854466873	-9.3949136152088	-8.506539051335391	31.98651536388966	0.5582700093396267	0	0	0	-2.041570873194889	-2.970753380455654	0.6834894105042659	67.85180318960245	-0.2524218334578753	-0.1307263772529467	24.26704320569576	114.294661543814	0	0	35.34808700999639	-9.586094121566193	-4.954450582921349	22.07637967302924	125.4713749564817	0	0
32.97999999999956	-3.81495489160783	-2.349807666628928	30.47132749571704	0	0.9399999999999999	0	28.85055306116789	-9.395541399768689	-8.507533343475746	31.99173262149116	0.5583610676626976	0	0	0	28.85055306116789	-9.395541399768689	-8.507533343475746	31.99173262149116	0.5583610676626976	0	0	0	-2.02725236391573	-2.942277803768515	0.7095997009048102	67.73637306446828	-0.8486574264106999	-0.531645066382623	24.19205120725312	114.5384988580762	0	0	35.26300277653682	-9.648850892883207	-5.096280266854972	22.0757193547804	125.4739108935047	0	0
32.99999999999956	-3.819343186905727	-2.312782047779761	30.33299745656148	0	0.9399999999999999	0	28.85438660978157	-9.396019362958876	-8.508291011073929	31.99571864997035	0.5584306369837376	0	0	0	28.85438660978157	-9.396019362958876	-8.508291011073929	31.99571864997035	0.5584306369837376	0	0	0	-2.011618008312356	-2.90943990518634	0.741601485656413	67.6261047661342	-1.398413826288671	-0.8869019125632899	24.0994633859807	114.6097097322246	0	0	35.22040511437823	-9.664229234175137	-5.224965442252132	22.05807516222076	125.5097585142951	0	0
33.01999999999956	-3.821309780788112	-2.285369662377119	30.1950059021132	0	0.9399999999999999	0	28.8584857082096	-9.396530139516951	-8.509100940165517	31.99998104725604	0.5585050298504011	0	0	0	28.8584857082096	-9.396530139516951	-8.509100940165517	31.99998104725604	0.5585050298504011	0	0	0	-1.998718990719632	-2.886173263614155	0.7760426835422005	67.51447161491465	-1.90461380062295	-1.309409261297772	24.00860261387673	114.5833341683842	0	0	35.120198852533	-9.732060334224686	-5.354026881197977	22.1059009466726	125.5297155926735	0	0
33.03999999999957	-3.816891114359104	-2.254779395357879	30.09680995131946	0	0.9399999999999999	0	28.86241964957907	-9.397017814928683	-8.509875772752961	32.00408806950175	0.5585767109110413	0	0	0	28.86241964957907	-9.397017814928683	-8.509875772752961	32.00408806950175	0.5585767109110413	0	0	0	-1.980638097340901	-2.860384247478595	0.7553373736414888	67.51134588738333	-1.949797858702721	-1.284949182665002	23.78733288718018	114.2552908623573	0	0	35.00932810649822	-9.809299738943878	-5.511962418221856	22.10458927237333	125.5884517697439	0	0
33.05999999999957	-3.825515519994876	-2.23065090734313	29.99149745429498	0	0.9399999999999999	0	28.86692351085745	-9.397578731406519	-8.510765549620913	32.00876922620672	0.5586584125083448	0	0	0	28.86692351085745	-9.397578731406519	-8.510765549620913	32.00876922620672	0.5586584125083448	0	0	0	-1.97449224213102	-2.838021183789114	0.8165090952053761	67.43039424543068	-2.480361017819985	-1.788771610135918	23.74482064831649	114.2118725129614	0	0	34.97414371150744	-9.823865375669536	-5.564296916031549	22.13306782198758	125.6502399464002	0	0
33.07999999999957	-3.833473827024699	-2.198783391391465	29.92340095501335	0	0.9399999999999999	0	28.87051517880881	-9.398025291450816	-8.511474417876641	32.01250622525659	0.558723635445909	0	0	0	28.87051517880881	-9.398025291450816	-8.511474417876641	32.01250622525659	0.558723635445909	0	0	0	-1.966424195375207	-2.805114076628421	0.7999274391366192	67.44625966088056	-2.555997767887964	-1.760667540120588	23.62432622043467	114.0240162531092	0	0	34.89172687533588	-9.854908269532212	-5.609855887928331	22.12665319629184	125.6182525934352	0	0
33.09999999999958	-3.838827067556597	-2.16402645727858	29.74929397125765	0	0.9399999999999999	0	28.87556008915167	-9.398653111747478	-8.512470797284429	32.01774828429331	0.5588151266356838	0	0	0	28.87556008915167	-9.398653111747478	-8.512470797284429	32.01774828429331	0.5588151266356838	0	0	0	-1.951086437501702	-2.777803015398466	0.9081529735820705	67.32646816096442	-3.394759024851578	-2.734274546351755	23.71989443501286	114.4064849087748	0	0	34.84009476870803	-9.856226054954135	-5.69807295125174	22.1521071114054	125.6297873823559	0	0
33.11999999999958	-3.833588273391088	-2.118899944133496	29.64172833622041	0	0.9399999999999999	0	28.88067735330812	-9.399289573776137	-8.513481216562916	32.02306526383017	0.558907925434863	0	0	0	28.88067735330812	-9.399289573776137	-8.513481216562916	32.02306526383017	0.558907925434863	0	0	0	-1.923636825207635	-2.742494769995359	0.9428926706814209	67.27977100134167	-3.794037563941064	-3.157121044716923	23.73465854863113	114.5634830379018	0	0	34.74073120901295	-9.879377301054177	-5.809595394346286	22.1416095857705	125.6466928333279	0	0
